<mxfile host="app.diagrams.net" modified="2021-04-02T00:46:46.657Z" agent="5.0 (Macintosh; Intel Mac OS X 10_14_3) AppleWebKit/537.36 (KHTML, like Gecko) Chrome/89.0.4389.90 Safari/537.36" etag="ZyCKo4i5QJ9998bNFpFo" version="14.5.1" type="github">
  <diagram id="3228e29e-7158-1315-38df-8450db1d8a1d" name="Page-1">
    <mxGraphModel dx="749" dy="490" grid="1" gridSize="10" guides="1" tooltips="1" connect="1" arrows="1" fold="1" page="1" pageScale="1" pageWidth="800" pageHeight="190" background="#ffffff" math="0" shadow="1">
      <root>
        <mxCell id="0" />
        <mxCell id="1" parent="0" />
        <mxCell id="hxIQwMxnJQ58AHrIh3xL-3" style="edgeStyle=orthogonalEdgeStyle;rounded=0;orthogonalLoop=1;jettySize=auto;html=1;exitX=1;exitY=0.5;exitDx=0;exitDy=0;exitPerimeter=0;strokeWidth=10;endArrow=none;endFill=0;entryX=0.05;entryY=0.05;entryDx=0;entryDy=0;entryPerimeter=0;" parent="1" source="WelgVeyDKxLRvEI-DW8B-16" target="fYc7Ru6buci-YKz5Eo-_-1" edge="1">
          <mxGeometry relative="1" as="geometry">
            <mxPoint x="360" y="180" as="targetPoint" />
          </mxGeometry>
        </mxCell>
        <mxCell id="WelgVeyDKxLRvEI-DW8B-16" value="" style="fontColor=#0066CC;verticalAlign=top;verticalLabelPosition=bottom;labelPosition=center;align=center;html=1;outlineConnect=0;gradientColor=none;gradientDirection=north;strokeWidth=2;shape=mxgraph.networks.pc;fillColor=#4A919B;" parent="1" vertex="1">
          <mxGeometry x="40.00000000000003" y="140" width="147.15" height="103" as="geometry" />
        </mxCell>
        <mxCell id="fYc7Ru6buci-YKz5Eo-_-2" style="edgeStyle=orthogonalEdgeStyle;rounded=0;orthogonalLoop=1;jettySize=auto;html=1;exitX=0;exitY=0.5;exitDx=0;exitDy=0;exitPerimeter=0;entryX=0.95;entryY=0.05;entryDx=0;entryDy=0;entryPerimeter=0;strokeWidth=10;endArrow=none;endFill=0;" parent="1" source="WelgVeyDKxLRvEI-DW8B-18" target="fYc7Ru6buci-YKz5Eo-_-1" edge="1">
          <mxGeometry relative="1" as="geometry" />
        </mxCell>
        <mxCell id="WelgVeyDKxLRvEI-DW8B-18" value="" style="fontColor=#0066CC;verticalAlign=top;verticalLabelPosition=bottom;labelPosition=center;align=center;html=1;outlineConnect=0;gradientColor=none;gradientDirection=north;strokeWidth=2;shape=mxgraph.networks.pc;fillColor=#4A919B;" parent="1" vertex="1">
          <mxGeometry x="586" y="140" width="147.15" height="103" as="geometry" />
        </mxCell>
        <mxCell id="hxIQwMxnJQ58AHrIh3xL-1" value="&lt;font style=&quot;font-size: 50px&quot;&gt;A&lt;/font&gt;" style="text;html=1;strokeColor=none;fillColor=none;align=center;verticalAlign=middle;whiteSpace=wrap;rounded=0;" parent="1" vertex="1">
          <mxGeometry x="105" y="170" width="40" height="20" as="geometry" />
        </mxCell>
        <mxCell id="hxIQwMxnJQ58AHrIh3xL-2" value="&lt;font style=&quot;font-size: 50px&quot;&gt;B&lt;/font&gt;" style="text;html=1;strokeColor=none;fillColor=none;align=center;verticalAlign=middle;whiteSpace=wrap;rounded=0;" parent="1" vertex="1">
          <mxGeometry x="656" y="170" width="40" height="20" as="geometry" />
        </mxCell>
        <mxCell id="2MkYNlgvhWym0eP00aD1-4" style="edgeStyle=orthogonalEdgeStyle;rounded=0;orthogonalLoop=1;jettySize=auto;html=1;exitX=0.5;exitY=1;exitDx=0;exitDy=0;exitPerimeter=0;entryX=1;entryY=0.5;entryDx=0;entryDy=0;entryPerimeter=0;fillColor=#FDD276;strokeWidth=10;endArrow=none;endFill=0;" parent="1" source="fYc7Ru6buci-YKz5Eo-_-1" target="2MkYNlgvhWym0eP00aD1-1" edge="1">
          <mxGeometry relative="1" as="geometry" />
        </mxCell>
        <mxCell id="fYc7Ru6buci-YKz5Eo-_-1" value="" style="fontColor=#0066CC;verticalAlign=top;verticalLabelPosition=bottom;labelPosition=center;align=center;html=1;outlineConnect=0;gradientColor=none;gradientDirection=north;strokeWidth=2;shape=mxgraph.networks.hub;fillColor=#FDD276;" parent="1" vertex="1">
          <mxGeometry x="330" y="190" width="130" height="39" as="geometry" />
        </mxCell>
        <mxCell id="fYc7Ru6buci-YKz5Eo-_-4" value="&lt;span style=&quot;font-size: 30px&quot;&gt;集线器&lt;/span&gt;" style="text;html=1;strokeColor=none;fillColor=none;align=center;verticalAlign=middle;whiteSpace=wrap;rounded=0;" parent="1" vertex="1">
          <mxGeometry x="345" y="152" width="100" height="31" as="geometry" />
        </mxCell>
        <mxCell id="bW8L0aDx1Iclk9FvhG7W-7" value="&lt;span style=&quot;font-size: 18px&quot;&gt;B在1号端口，转发给它&lt;/span&gt;" style="shape=callout;whiteSpace=wrap;html=1;perimeter=calloutPerimeter;dashed=1;rounded=1;strokeWidth=3;direction=west;size=20;position=0.56;base=30;position2=0.56;fillColor=#F19C99;strokeColor=#F19C99;" parent="1" vertex="1">
          <mxGeometry x="180" y="520" width="120" height="101.5" as="geometry" />
        </mxCell>
        <mxCell id="o6Qymi9LCWFlwB0xCJtG-19" value="MAC地址" style="rounded=0;whiteSpace=wrap;html=1;strokeColor=#376B73;strokeWidth=2;fontSize=30;fillColor=#67AB9F;" parent="1" vertex="1">
          <mxGeometry x="40" y="676" width="227" height="60" as="geometry" />
        </mxCell>
        <mxCell id="o6Qymi9LCWFlwB0xCJtG-20" value="端口" style="rounded=0;whiteSpace=wrap;html=1;strokeColor=#376B73;strokeWidth=2;fontSize=30;fillColor=#67AB9F;" parent="1" vertex="1">
          <mxGeometry x="267" y="676" width="123" height="60" as="geometry" />
        </mxCell>
        <mxCell id="o6Qymi9LCWFlwB0xCJtG-21" value="控制信息" style="rounded=0;whiteSpace=wrap;html=1;strokeColor=#376B73;strokeWidth=2;fontSize=30;fillColor=#67AB9F;" parent="1" vertex="1">
          <mxGeometry x="390" y="676" width="150" height="60" as="geometry" />
        </mxCell>
        <mxCell id="o6Qymi9LCWFlwB0xCJtG-22" value="AA-AA-AA-AA-AA-AA" style="rounded=0;whiteSpace=wrap;html=1;strokeColor=#376B73;strokeWidth=2;fontSize=20;fillColor=#FFE599;" parent="1" vertex="1">
          <mxGeometry x="40" y="736" width="227" height="60" as="geometry" />
        </mxCell>
        <mxCell id="o6Qymi9LCWFlwB0xCJtG-23" value="1" style="rounded=0;whiteSpace=wrap;html=1;strokeColor=#376B73;strokeWidth=2;fontSize=20;fillColor=#FFE599;" parent="1" vertex="1">
          <mxGeometry x="267" y="736" width="123" height="60" as="geometry" />
        </mxCell>
        <mxCell id="o6Qymi9LCWFlwB0xCJtG-24" value="..." style="rounded=0;whiteSpace=wrap;html=1;strokeColor=#376B73;strokeWidth=2;fontSize=20;fillColor=#FFE599;" parent="1" vertex="1">
          <mxGeometry x="390" y="736" width="150" height="60" as="geometry" />
        </mxCell>
        <mxCell id="o6Qymi9LCWFlwB0xCJtG-25" value="BB-BB-BB-BB-BB-BB" style="rounded=0;whiteSpace=wrap;html=1;strokeColor=#376B73;strokeWidth=2;fontSize=20;fillColor=#FFE599;" parent="1" vertex="1">
          <mxGeometry x="40" y="796" width="227" height="60" as="geometry" />
        </mxCell>
        <mxCell id="o6Qymi9LCWFlwB0xCJtG-26" value="1" style="rounded=0;whiteSpace=wrap;html=1;strokeColor=#376B73;strokeWidth=2;fontSize=20;fillColor=#FFE599;" parent="1" vertex="1">
          <mxGeometry x="267" y="796" width="123" height="60" as="geometry" />
        </mxCell>
        <mxCell id="o6Qymi9LCWFlwB0xCJtG-27" value="..." style="rounded=0;whiteSpace=wrap;html=1;strokeColor=#376B73;strokeWidth=2;fontSize=20;fillColor=#FFE599;" parent="1" vertex="1">
          <mxGeometry x="390" y="796" width="150" height="60" as="geometry" />
        </mxCell>
        <mxCell id="o6Qymi9LCWFlwB0xCJtG-31" value="..." style="rounded=0;whiteSpace=wrap;html=1;strokeColor=#376B73;strokeWidth=2;fontSize=20;fillColor=#FFE599;" parent="1" vertex="1">
          <mxGeometry x="40" y="855" width="227" height="60" as="geometry" />
        </mxCell>
        <mxCell id="o6Qymi9LCWFlwB0xCJtG-32" value="..." style="rounded=0;whiteSpace=wrap;html=1;strokeColor=#376B73;strokeWidth=2;fontSize=20;fillColor=#FFE599;" parent="1" vertex="1">
          <mxGeometry x="267" y="855" width="123" height="60" as="geometry" />
        </mxCell>
        <mxCell id="o6Qymi9LCWFlwB0xCJtG-33" value="..." style="rounded=0;whiteSpace=wrap;html=1;strokeColor=#376B73;strokeWidth=2;fontSize=20;fillColor=#FFE599;" parent="1" vertex="1">
          <mxGeometry x="390" y="855" width="150" height="60" as="geometry" />
        </mxCell>
        <mxCell id="o6Qymi9LCWFlwB0xCJtG-34" value="" style="shape=flexArrow;endArrow=classic;html=1;fontSize=20;endWidth=44;endSize=10.83;width=28;strokeColor=#F19C99;fillColor=#F19C99;" parent="1" edge="1">
          <mxGeometry width="50" height="50" relative="1" as="geometry">
            <mxPoint x="350" y="526" as="sourcePoint" />
            <mxPoint x="350" y="646" as="targetPoint" />
          </mxGeometry>
        </mxCell>
        <mxCell id="2MkYNlgvhWym0eP00aD1-1" value="" style="fontColor=#0066CC;verticalAlign=top;verticalLabelPosition=bottom;labelPosition=center;align=center;html=1;outlineConnect=0;gradientColor=none;gradientDirection=north;strokeWidth=2;shape=mxgraph.networks.hub;fillColor=#F19C99;" parent="1" vertex="1">
          <mxGeometry x="240" y="456" width="130" height="39" as="geometry" />
        </mxCell>
        <mxCell id="2MkYNlgvhWym0eP00aD1-2" value="&lt;span style=&quot;font-size: 30px&quot;&gt;交换机&lt;/span&gt;" style="text;html=1;strokeColor=none;fillColor=none;align=center;verticalAlign=middle;whiteSpace=wrap;rounded=0;" parent="1" vertex="1">
          <mxGeometry x="245" y="410" width="100" height="31" as="geometry" />
        </mxCell>
        <mxCell id="2MkYNlgvhWym0eP00aD1-6" value="" style="endArrow=openThin;html=1;strokeWidth=10;fillColor=#FDD276;strokeColor=#FDD276;endFill=0;" parent="1" edge="1">
          <mxGeometry width="50" height="50" relative="1" as="geometry">
            <mxPoint x="210" y="242" as="sourcePoint" />
            <mxPoint x="560" y="242" as="targetPoint" />
          </mxGeometry>
        </mxCell>
        <mxCell id="2MkYNlgvhWym0eP00aD1-7" value="" style="endArrow=openThin;html=1;strokeWidth=10;fillColor=#FDD276;strokeColor=#FDD276;endFill=0;" parent="1" edge="1">
          <mxGeometry width="50" height="50" relative="1" as="geometry">
            <mxPoint x="370" y="242" as="sourcePoint" />
            <mxPoint x="370" y="440" as="targetPoint" />
          </mxGeometry>
        </mxCell>
        <mxCell id="2MkYNlgvhWym0eP00aD1-8" value="" style="endArrow=none;html=1;strokeWidth=10;fillColor=#FDD276;endFill=0;startArrow=none;startFill=0;strokeColor=#F19C99;" parent="1" edge="1">
          <mxGeometry width="50" height="50" relative="1" as="geometry">
            <mxPoint x="420" y="258" as="sourcePoint" />
            <mxPoint x="420" y="456" as="targetPoint" />
          </mxGeometry>
        </mxCell>
        <mxCell id="2MkYNlgvhWym0eP00aD1-9" value="" style="endArrow=none;html=1;strokeWidth=10;fillColor=#FDD276;endFill=0;startArrow=openThin;startFill=0;strokeColor=#F19C99;" parent="1" edge="1">
          <mxGeometry width="50" height="50" relative="1" as="geometry">
            <mxPoint x="560" y="263" as="sourcePoint" />
            <mxPoint x="419" y="263" as="targetPoint" />
          </mxGeometry>
        </mxCell>
        <mxCell id="2MkYNlgvhWym0eP00aD1-11" value="&lt;font style=&quot;font-size: 20px&quot;&gt;B有空吗?&lt;/font&gt;" style="rounded=1;whiteSpace=wrap;html=1;fillColor=#FDD276;dashed=1;strokeWidth=5;strokeColor=#FDD276;" parent="1" vertex="1">
          <mxGeometry x="579" y="258" width="117" height="54" as="geometry" />
        </mxCell>
        <mxCell id="2MkYNlgvhWym0eP00aD1-13" value="&lt;font style=&quot;font-size: 20px&quot;&gt;B有空吗?&lt;/font&gt;" style="rounded=1;whiteSpace=wrap;html=1;fillColor=#FDD276;dashed=1;strokeWidth=5;strokeColor=#FDD276;" parent="1" vertex="1">
          <mxGeometry x="145" y="258" width="117" height="54" as="geometry" />
        </mxCell>
        <mxCell id="2MkYNlgvhWym0eP00aD1-14" value="&lt;font style=&quot;font-size: 20px&quot;&gt;B有空吗?&lt;/font&gt;" style="rounded=1;whiteSpace=wrap;html=1;dashed=1;strokeWidth=5;strokeColor=#F19C99;fillColor=#F19C99;" parent="1" vertex="1">
          <mxGeometry x="579" y="320" width="117" height="54" as="geometry" />
        </mxCell>
        <mxCell id="2MkYNlgvhWym0eP00aD1-15" value="&lt;font style=&quot;font-size: 20px&quot;&gt;为什么问两次???&lt;/font&gt;" style="shape=callout;whiteSpace=wrap;html=1;perimeter=calloutPerimeter;strokeWidth=5;fillColor=#67AB9F;strokeColor=#67AB9F;" parent="1" vertex="1">
          <mxGeometry x="570" y="30" width="163.15" height="90" as="geometry" />
        </mxCell>
        <mxCell id="2MkYNlgvhWym0eP00aD1-18" value="&lt;font style=&quot;font-size: 20px&quot;&gt;1号端口&lt;/font&gt;" style="text;html=1;strokeColor=none;fillColor=none;align=center;verticalAlign=middle;whiteSpace=wrap;rounded=0;" parent="1" vertex="1">
          <mxGeometry x="368" y="490" width="92" height="20" as="geometry" />
        </mxCell>
      </root>
    </mxGraphModel>
  </diagram>
</mxfile>
